<?xml version="1.0" standalone="no"?>
<!DOCTYPE svg PUBLIC "-//W3C//DTD SVG 20010904//EN"
 "http://www.w3.org/TR/2001/REC-SVG-20010904/DTD/svg10.dtd">
<svg version="1.0" xmlns="http://www.w3.org/2000/svg"
 width="180.000000pt" height="180.000000pt" viewBox="0 0 180.000000 180.000000"
 preserveAspectRatio="xMidYMid meet">

<g transform="translate(0.000000,180.000000) scale(0.100000,-0.100000)"
fill="#706cf5" stroke="none">
<path d="M670 1765 c-162 -21 -254 -52 -364 -122 -76 -49 -78 -51 -122 -108
-113 -145 -162 -373 -151 -695 6 -165 8 -181 28 -275 54 -246 191 -402 414
-470 236 -73 614 -73 850 0 223 68 360 224 414 470 20 94 22 110 28 276 11
320 -38 549 -151 694 -44 57 -46 59 -122 108 -114 72 -197 100 -374 122 -135
17 -317 17 -450 0z m391 -339 c76 -24 143 -62 202 -116 51 -46 122 -144 141
-195 13 -34 36 -125 36 -144 0 -9 13 -27 29 -38 49 -37 91 -111 91 -161 0
-157 -253 -213 -625 -137 -284 58 -569 201 -652 327 -38 57 -39 134 -3 174 29
31 114 74 149 74 16 0 39 17 70 52 80 89 200 157 321 182 43 8 193 -3 241 -18z
m-531 -761 c144 -195 369 -256 575 -156 57 28 83 31 174 21 7 0 -94 -75 -128
-94 -95 -53 -265 -72 -376 -42 -139 37 -275 143 -338 264 -19 37 -38 77 -42
90 l-7 23 52 -27 c33 -17 65 -45 90 -79z"/>
<path d="M829 1356 c-189 -33 -333 -178 -369 -372 -15 -77 -20 -71 115 -138
197 -98 458 -161 640 -154 l90 3 24 60 c20 49 24 78 24 155 0 145 -37 233
-135 327 -82 77 -153 108 -288 126 -19 3 -65 0 -101 -7z"/>
<path d="M385 1111 c-11 -5 -28 -18 -39 -30 -16 -18 -17 -24 -6 -50 7 -17 18
-36 26 -42 11 -9 14 -7 14 12 0 13 7 45 15 72 8 26 13 47 12 46 -1 0 -11 -4
-22 -8z"/>
<path d="M1430 798 c-6 -24 -15 -53 -20 -65 -8 -18 -6 -23 6 -23 17 0 64 44
64 60 0 13 -28 70 -35 70 -2 0 -9 -19 -15 -42z"/>
</g>
</svg>
